<?xml version="1.0" encoding="utf-8"?>
<!-- Generator: Adobe Illustrator 16.0.0, SVG Export Plug-In . SVG Version: 6.00 Build 0)  -->
<!DOCTYPE svg PUBLIC "-//W3C//DTD SVG 1.1//EN" "http://www.w3.org/Graphics/SVG/1.1/DTD/svg11.dtd">
<svg version="1.1" id="Layer_1" xmlns:sketch="http://www.bohemiancoding.com/sketch/ns"
	 xmlns="http://www.w3.org/2000/svg" xmlns:xlink="http://www.w3.org/1999/xlink" x="0px" y="0px" width="547px" height="678px"
	 viewBox="0 0 547 678" enable-background="new 0 0 547 678" xml:space="preserve">
<title>Logo</title>
<description>Created with Sketch (http://www.bohemiancoding.com/sketch)</description>
<g>
	<defs>
		<path id="SVGID_1_" d="M408.48,86.588c48.117,29.548,75.539,83.359,65.521,178.67c-15.896,151.244-55.605,356.488-225.797,338.601
			S75.157,376.253,91.054,225.009C100.78,132.472,139.396,85.8,192.13,66.055c-45.465,19.997-78.412,63.474-87.04,145.559
			C90.232,352.99,92.902,549.026,251.99,565.747c159.088,16.721,196.207-175.133,211.066-316.51
			C471.947,164.647,449.289,115.028,408.48,86.588z"/>
	</defs>
	<clipPath id="SVGID_2_">
		<use xlink:href="#SVGID_1_"  overflow="visible"/>
	</clipPath>
	
		<rect x="75.094" y="68.773" transform="matrix(-0.9945 -0.1045 0.1045 -0.9945 508.2795 705.3723)" clip-path="url(#SVGID_2_)" fill-rule="evenodd" clip-rule="evenodd" fill="#FFBB1B" width="395.058" height="541.189"/>
</g>
<path fill="none" stroke="#FFBB1B" stroke-width="9" stroke-linecap="round" stroke-linejoin="round" stroke-miterlimit="10" d="
	M408.48,86.588c48.117,29.548,75.539,83.359,65.521,178.67c-15.896,151.244-55.605,356.488-225.797,338.601
	S75.157,376.253,91.054,225.009C100.78,132.472,139.396,85.8,192.13,66.055c-45.465,19.997-78.412,63.474-87.04,145.559
	C90.232,352.99,92.902,549.026,251.99,565.747c159.088,16.721,196.207-175.133,211.066-316.51
	C471.947,164.647,449.289,115.028,408.48,86.588z"/>
<path fill="none" stroke="#FFBB1B" stroke-width="12" stroke-linecap="round" stroke-miterlimit="10" d="M399.125,177.555
	c0,0-26.123,104.776-110.168,14.422c-84.043-90.355-110.727,14.281-110.727,14.281"/>
</svg>
