<?xml version="1.0" encoding="utf-8"?>
<!-- Generator: Adobe Illustrator 16.0.0, SVG Export Plug-In . SVG Version: 6.00 Build 0)  -->
<!DOCTYPE svg PUBLIC "-//W3C//DTD SVG 1.1//EN" "http://www.w3.org/Graphics/SVG/1.1/DTD/svg11.dtd">
<svg version="1.1" id="Layer_1" xmlns:sketch="http://www.bohemiancoding.com/sketch/ns"
	 xmlns="http://www.w3.org/2000/svg" xmlns:xlink="http://www.w3.org/1999/xlink" x="0px" y="0px" width="547px" height="678px"
	 viewBox="0 0 547 678" enable-background="new 0 0 547 678" xml:space="preserve">
<path fill="#FFBB1B" d="M350.016,234.713c-19.591,0-41.548-12.951-65.452-38.65c-25.105-26.991-46.808-38.402-64.492-33.906
	c-25.698,6.525-35.928,45.2-36.028,45.59c-0.825,3.207-4.091,5.143-7.301,4.32c-3.208-0.822-5.144-4.083-4.326-7.292
	c0.477-1.872,12.061-45.923,44.656-54.238c22.275-5.683,47.938,6.886,76.278,37.353c25.116,27.001,46.766,38.395,64.342,33.859
	c13.082-3.375,22.017-15.408,27.208-24.909c5.877-10.753,8.378-20.639,8.403-20.737c0.801-3.216,4.063-5.171,7.272-4.37
	c3.216,0.802,5.172,4.058,4.37,7.273c-0.467,1.874-11.816,45.995-44.256,54.363C357.217,234.265,353.655,234.713,350.016,234.713z"
	/>
<path fill="#FFBB1B" d="M268.552,609.452c-6.75,0-13.754-0.376-20.817-1.118c-77.483-8.144-128.701-56.159-152.231-142.711
	c-16.628-61.164-19.547-140.024-8.925-241.084c4.708-44.802,16.54-81.418,35.163-108.833c16.989-25.008,40.141-43.13,68.811-53.866
	c2.285-0.854,4.829,0.263,5.747,2.519s-0.126,4.833-2.356,5.814c-23.026,10.127-41.647,26.206-55.346,47.789
	c-15.219,23.977-24.986,55.643-29.03,94.121c-9.814,93.377-7.168,166.047,8.087,222.163c9.836,36.181,25.111,65.065,45.4,85.852
	c22.934,23.496,53.015,37.349,89.408,41.174c6.292,0.661,12.533,0.997,18.55,0.998c0.008,0,0.017,0,0.024,0
	c32.626,0,61.396-9.936,85.514-29.533c21.369-17.364,39.775-42.849,54.708-75.746c29.673-65.37,41.22-150.144,47.324-208.223
	c8.025-76.352-9.205-128.193-52.674-158.487c-1.997-1.392-2.525-4.12-1.191-6.157c1.332-2.038,4.045-2.645,6.119-1.37
	c54.913,33.721,77.039,93.572,67.643,182.975c-13.774,131.053-35.942,191.53-51.418,225.62
	c-16.577,36.517-37.146,64.917-61.135,84.413C338.416,598.116,305.655,609.452,268.552,609.452z"/>
</svg>
